<svg width="24" height="24" viewBox="0 0 24 24" fill="none" xmlns="http://www.w3.org/2000/svg">
<g clip-path="url(#clip0_1_73)">
<path d="M3.75 20.0476V20.0472V6.97165C3.75087 6.38265 3.98518 5.81804 4.40152 5.4016C4.81785 4.98516 5.38224 4.75087 5.97093 4.75H17.0291C17.6178 4.75087 18.1821 4.98516 18.5985 5.4016L19.1234 4.8768L18.5985 5.4016C19.0149 5.81815 19.2492 6.38292 19.25 6.97209V20.0472V20.0474C19.25 20.2729 19.1867 20.4939 19.0671 20.6851C18.9476 20.8763 18.7767 21.03 18.5741 21.1286L18.8657 21.7276L18.5741 21.1286C18.3714 21.2273 18.1451 21.267 17.921 21.2431C17.6969 21.2193 17.484 21.1329 17.3066 20.9937L17.3065 20.9936L11.9627 16.8043L11.5 16.4415L11.0373 16.8043L5.69295 20.9936L5.69268 20.9938C5.51536 21.133 5.30252 21.2194 5.07846 21.2432C4.8544 21.2671 4.62815 21.2274 4.42554 21.1288C4.22292 21.0301 4.05212 20.8764 3.93266 20.6853L3.30118 21.0798L3.93265 20.6853C3.81319 20.4941 3.74989 20.2731 3.75 20.0476Z" stroke="currentColor" stroke-width="1.5"/>
<path d="M7.5 8.5H16" stroke="currentColor" stroke-linecap="round" stroke-linejoin="round"/>
</g>
<defs>
<clipPath id="clip0_1_73">
<rect width="24" height="24" fill="white"/>
</clipPath>
</defs>
</svg>
